<svg width="67" height="59" viewBox="0 0 67 59" fill="none" xmlns="http://www.w3.org/2000/svg">
<path d="M46.24 54.9713C46.2837 54.9366 46.319 54.8926 46.3432 54.8423C46.3674 54.7921 46.38 54.7371 46.38 54.6813L45.99 47.6813L49.36 45.6213C49.613 45.4684 49.8332 45.267 50.008 45.0287C50.1827 44.7903 50.3086 44.5197 50.3784 44.2325C50.4481 43.9452 50.4602 43.647 50.4142 43.3551C50.3681 43.0631 50.2647 42.7831 50.11 42.5313L48.84 40.4413C48.5275 39.9318 48.0258 39.5667 47.4449 39.4262C46.8639 39.2856 46.2509 39.381 45.74 39.6913L45.56 39.8013L44.77 25.4213L60.77 17.1713C61.6075 16.6614 62.3357 15.9906 62.9124 15.1976C63.4891 14.4046 63.903 13.5052 64.13 12.5513L64.19 12.2813L66.35 8.85132C66.7079 8.27486 66.8976 7.60983 66.8976 6.9313C66.8976 6.25278 66.7079 5.58775 66.35 5.01129C65.9961 4.42912 65.4864 3.95762 64.8784 3.65012C64.2705 3.34261 63.5886 3.21139 62.91 3.2713L58.91 3.62131C57.9188 3.33863 56.8796 3.26556 55.8586 3.40674C54.8376 3.54792 53.8573 3.90027 52.98 4.44131L38.24 14.8513L25.82 7.57129L26 7.4613C26.5096 7.14881 26.8746 6.64715 27.0151 6.06616C27.1557 5.48517 27.0604 4.87216 26.75 4.3613L25.48 2.2713C25.1657 1.76379 24.6641 1.4005 24.0839 1.26013C23.5037 1.11976 22.8915 1.21359 22.38 1.5213L19.01 3.5813L13.01 0.0413184C12.9592 0.014182 12.9026 -2.3602e-06 12.845 -2.36271e-06C12.7874 -2.36523e-06 12.7308 0.014182 12.68 0.0413184L6.95999 2.9913C6.9057 3.02136 6.85986 3.06461 6.82666 3.11703C6.79346 3.16946 6.77396 3.22936 6.76999 3.29129C6.75517 3.35037 6.75517 3.41223 6.76999 3.47131C6.80298 3.52123 6.8476 3.56241 6.89999 3.59131L9.84 5.23129L11.95 7.88131L10.43 8.81131C10.3918 8.83482 10.3586 8.86566 10.3323 8.90207C10.3061 8.93847 10.2873 8.97971 10.2771 9.0234C10.2669 9.0671 10.2654 9.11238 10.2728 9.15664C10.2801 9.20091 10.2962 9.24328 10.32 9.28131L10.49 9.56131L9.16998 10.3713C8.94801 10.5098 8.78914 10.7297 8.72745 10.9839C8.66576 11.2382 8.70616 11.5065 8.84 11.7313L10.73 14.8313C10.8684 15.0533 11.0884 15.2121 11.3427 15.2738C11.5969 15.3355 11.8652 15.2951 12.09 15.1613L13.41 14.3513L13.58 14.6313C13.6277 14.7082 13.7032 14.7635 13.7908 14.7859C13.8784 14.8083 13.9713 14.7959 14.05 14.7513L16.3 13.3713L24.97 24.2813L12.07 33.4613L3.61999 29.9413L-1.39008e-06 31.8013L5.66998 38.1113L3.34997 40.8013L5.72 44.6913L9.10998 43.7613L12.11 51.6713L15.42 49.3113L16.16 40.1813L30.51 32.7613L35.96 45.6113L33.7 46.9913C33.6238 47.0371 33.5687 47.1109 33.5462 47.1968C33.5238 47.2828 33.5359 47.3741 33.58 47.4513L33.76 47.7413L32.43 48.5513C32.2124 48.6912 32.0575 48.91 31.9978 49.1618C31.9381 49.4135 31.9783 49.6786 32.11 49.9013L34 53.0013C34.1383 53.2206 34.3564 53.3776 34.6083 53.4391C34.8602 53.5007 35.1261 53.462 35.35 53.3313L36.68 52.5313L36.85 52.8113C36.8735 52.8495 36.9044 52.8827 36.9408 52.9089C36.9772 52.9352 37.0184 52.9539 37.0621 52.9642C37.1058 52.9744 37.151 52.9759 37.1953 52.9685C37.2396 52.9612 37.2819 52.9451 37.32 52.9213L38.84 52.0013L40.23 55.0813L40.34 58.4513C40.346 58.5106 40.3629 58.5682 40.39 58.6213C40.4266 58.6744 40.4744 58.7188 40.53 58.7513C40.5835 58.7811 40.6437 58.7967 40.705 58.7967C40.7662 58.7967 40.8265 58.7811 40.88 58.7513L46.24 54.9713ZM19.75 3.97131L22.75 2.1113C23.1069 1.89306 23.5357 1.82525 23.9425 1.92273C24.3493 2.02021 24.7008 2.27504 24.92 2.63132L26.2 4.72131C26.4147 5.08005 26.4794 5.5089 26.3802 5.91504C26.2811 6.32118 26.0259 6.67191 25.67 6.89129L25.18 7.19131L22.44 5.5813L19.75 3.97131ZM11.82 14.5813C11.7507 14.6225 11.6681 14.6351 11.5897 14.6164C11.5113 14.5978 11.4433 14.5493 11.4 14.4813L9.50998 11.3713C9.48825 11.3374 9.47359 11.2994 9.46686 11.2597C9.46012 11.2199 9.46146 11.1793 9.47079 11.1401C9.48013 11.1009 9.49726 11.064 9.52118 11.0315C9.54509 10.9991 9.5753 10.9718 9.60998 10.9513L10.93 10.1413L13.15 13.7713L11.82 14.5813ZM14.08 13.9913L11.16 9.2113L12.46 8.42129L15.97 12.8413L14.08 13.9913ZM16.74 12.7213L12.81 7.72131L10.43 4.72131C10.4016 4.68625 10.3678 4.65588 10.33 4.63131L7.88 3.2713L12.88 0.691282L21.88 5.95129L25.09 7.84131L37.73 15.2513L25.59 23.8113L16.74 12.7213ZM46.09 40.2913C46.4469 40.0731 46.8757 40.0053 47.2825 40.1028C47.6893 40.2002 48.0408 40.455 48.26 40.8113L49.53 42.9013C49.7482 43.2582 49.816 43.687 49.7186 44.0938C49.6211 44.5006 49.3662 44.8521 49.01 45.0713L45.95 46.9313L45.78 43.7613L45.6 40.5813L46.09 40.2913ZM62.98 3.95129C63.5335 3.89675 64.091 4.00143 64.5871 4.25299C65.0831 4.50455 65.497 4.89253 65.78 5.37131C66.0759 5.83966 66.233 6.38231 66.233 6.93631C66.233 7.49031 66.0759 8.03296 65.78 8.50131L64.35 10.7813L64.35 10.6813C64.3499 10.4202 64.3298 10.1594 64.29 9.90131C64.2997 9.82495 64.2997 9.74765 64.29 9.6713C64.2502 9.37747 64.1901 9.08677 64.11 8.8013L64.11 8.72131C64.03 8.45671 63.9366 8.19637 63.83 7.94131L63.73 7.73129C63.61 7.45136 63.4697 7.18063 63.31 6.9213C63.15 6.66129 62.97 6.41129 62.79 6.17129L62.64 5.9913C62.4604 5.77845 62.2702 5.57486 62.07 5.38132L62.02 5.3313C61.7981 5.13077 61.5643 4.94377 61.32 4.7713L61.14 4.6413C60.9215 4.49154 60.6944 4.35464 60.46 4.23129C60.4357 4.21109 60.4088 4.19428 60.38 4.1813L62.98 3.95129ZM58.76 4.29129C60.3902 4.76676 61.7823 5.83755 62.66 7.29129C63.5427 8.74368 63.8495 10.474 63.52 12.1413L63.46 12.4213C63.0397 14.17 61.9428 15.6805 60.41 16.6213L44.27 24.9613L30.64 31.9613L9.53 42.8813L8.60998 41.3713C11.11 39.838 13.61 38.3113 16.11 36.7913C16.3277 36.6529 16.4834 36.4358 16.5448 36.1853C16.6062 35.9348 16.5683 35.6702 16.4393 35.4469C16.3102 35.2236 16.0998 35.0589 15.8521 34.987C15.6044 34.9151 15.3385 34.9418 15.11 35.0613L7.59997 39.6313L6.70999 38.1713L38.47 15.5813L38.58 15.5113L53.24 5.00131C54.0531 4.50234 54.9623 4.18033 55.9083 4.05627C56.8542 3.93222 57.8157 4.0089 58.73 4.28131L58.76 4.29129ZM1.17999 32.0013L3.73999 30.6813L11.4 33.8713L6.29999 37.6213L6.29999 37.5413L6.25 37.6013L1.17999 32.0013ZM6.11999 43.9013L4.26999 40.9013L6.16 38.7113L6.97 40.0513C6.74059 40.1919 6.5764 40.4178 6.51358 40.6794C6.45075 40.941 6.49441 41.2169 6.63498 41.4463C6.77554 41.6757 7.00151 41.8399 7.26312 41.9027C7.52473 41.9655 7.80058 41.9219 8.03 41.7813L8.88 43.1713L6.11999 43.9013ZM14.88 48.9013L12.54 50.5713L9.84997 43.5713L9.92999 43.5713L9.92999 43.5013L15.59 40.6813L14.88 48.9013ZM35.11 52.7213C35.0395 52.7616 34.9561 52.7727 34.8775 52.7521C34.799 52.7315 34.7317 52.681 34.69 52.6113L32.79 49.5113C32.7684 49.476 32.7542 49.4367 32.7481 49.3958C32.742 49.3549 32.7441 49.3132 32.7544 49.2731C32.7646 49.2331 32.7828 49.1954 32.8078 49.1625C32.8328 49.1295 32.8641 49.1019 32.9 49.0813L34.22 48.2813L36.44 51.9113L35.11 52.7213ZM37.36 52.1313L34.45 47.3513L36.34 46.1913L36.56 46.6713L38.67 51.3413L37.36 52.1313ZM41.02 54.9513L41.02 54.8313L39.45 51.3313L36.84 45.5713L31.24 32.4613L42.76 26.4613L44.12 25.7513L44.93 40.3913L45.14 44.0513L45.71 54.5113L41.13 57.7713L41.02 54.9513Z" fill="#999999"/>
</svg>
